<svg width="87" height="86" viewBox="0 0 87 86" fill="none" xmlns="http://www.w3.org/2000/svg">
<rect width="87" height="86" rx="43" fill="white"/>
<path d="M43.5 3.00209C33.1347 2.89324 23.1517 7.04187 15.7449 14.5362C8.33813 22.0306 4.11369 32.2574 4 42.9691C4.03994 51.4344 6.67502 59.6689 11.5268 66.4897C16.3785 73.3106 23.1973 78.3668 31.0036 80.9322C32.9786 81.3033 33.6968 80.0787 33.6968 79.0025C33.6968 77.9263 33.6968 75.5513 33.6968 72.2115C22.7086 74.6236 20.3745 66.8677 20.3745 66.8677C19.6431 64.4329 18.088 62.3516 15.9936 61.0044C12.4027 58.5551 16.2809 58.5923 16.2809 58.5923C17.5221 58.7637 18.7096 59.2234 19.7544 59.9368C20.7992 60.6502 21.6742 61.5988 22.3136 62.7114C23.428 64.7084 25.2565 66.1733 27.4056 66.791C29.5547 67.4087 31.8525 67.1298 33.8045 66.0142C34.0053 63.982 34.8958 62.0889 36.3182 60.6704C27.5564 59.6684 18.3636 56.2543 18.3636 40.9281C18.2853 36.9302 19.7147 33.0576 22.3495 30.1292C21.1496 26.6968 21.2913 22.9163 22.7445 19.5901C22.7445 19.5901 26.0841 18.5139 33.5173 23.6721C39.9877 21.8903 46.7968 21.8903 53.2673 23.6721C60.8082 18.5139 64.04 19.5901 64.04 19.5901C65.4933 22.9163 65.635 26.6968 64.435 30.1292C67.1311 33.0039 68.638 36.8505 68.6364 40.8539C68.6364 56.2172 59.3718 59.5942 50.6818 60.5962C51.6333 61.5509 52.3684 62.7116 52.834 63.9949C53.2997 65.2782 53.4845 66.6522 53.375 68.0181V78.9654C53.375 78.9654 54.0932 81.3033 56.0682 80.8951C63.8524 78.3138 70.6482 73.2563 75.4849 66.4452C80.3216 59.634 82.9519 51.4174 83 42.9691C82.8863 32.2574 78.6619 22.0306 71.2551 14.5362C63.8483 7.04187 53.8653 2.89324 43.5 3.00209Z" fill="black"/>
</svg>

