<svg width="68" height="56" viewBox="0 0 68 56" fill="none" xmlns="http://www.w3.org/2000/svg">
<path d="M63 8H41.3344L32.6656 1.5C31.7989 0.853298 30.747 0.502682 29.6656 0.5H15.5C14.1739 0.5 12.9021 1.02678 11.9645 1.96447C11.0268 2.90215 10.5 4.17392 10.5 5.5V10.5H5.5C4.17392 10.5 2.90215 11.0268 1.96447 11.9645C1.02678 12.9021 0.5 14.1739 0.5 15.5V50.5C0.5 51.8261 1.02678 53.0979 1.96447 54.0355C2.90215 54.9732 4.17392 55.5 5.5 55.5H53.2781C54.5299 55.4983 55.73 55.0003 56.6152 54.1152C57.5003 53.23 57.9983 52.0299 58 50.7781V45.5H63.2781C64.5299 45.4983 65.73 45.0003 66.6152 44.1152C67.5003 43.23 67.9983 42.0299 68 40.7781V13C68 11.6739 67.4732 10.4021 66.5355 9.46447C65.5979 8.52678 64.3261 8 63 8ZM53 50.5H5.5V15.5H19.6656L29 22.5C29.4327 22.8246 29.9591 23 30.5 23H53V50.5ZM63 40.5H58V23C58 21.6739 57.4732 20.4021 56.5355 19.4645C55.5979 18.5268 54.3261 18 53 18H31.3344L22.6656 11.5C21.7989 10.8533 20.747 10.5027 19.6656 10.5H15.5V5.5H29.6656L39 12.5C39.4327 12.8246 39.9591 13 40.5 13H63V40.5Z" fill="white"/>
</svg>
