<svg width="43" height="10" viewBox="0 0 43 10" fill="none" xmlns="http://www.w3.org/2000/svg">
<path d="M5.58 4.704C6.052 4.792 6.44 5.028 6.744 5.412C7.048 5.796 7.2 6.236 7.2 6.732C7.2 7.18 7.088 7.576 6.864 7.92C6.648 8.256 6.332 8.52 5.916 8.712C5.5 8.904 5.008 9 4.44 9H0.828V0.624H4.284C4.852 0.624 5.34 0.716 5.748 0.9C6.164 1.084 6.476 1.34 6.684 1.668C6.9 1.996 7.008 2.368 7.008 2.784C7.008 3.272 6.876 3.68 6.612 4.008C6.356 4.336 6.012 4.568 5.58 4.704ZM2.508 4.08H4.044C4.444 4.08 4.752 3.992 4.968 3.816C5.184 3.632 5.292 3.372 5.292 3.036C5.292 2.7 5.184 2.44 4.968 2.256C4.752 2.072 4.444 1.98 4.044 1.98H2.508V4.08ZM4.2 7.632C4.608 7.632 4.924 7.536 5.148 7.344C5.38 7.152 5.496 6.88 5.496 6.528C5.496 6.168 5.376 5.888 5.136 5.688C4.896 5.48 4.572 5.376 4.164 5.376H2.508V7.632H4.2ZM14.8149 2.352V9H13.1229V8.16C12.9069 8.448 12.6229 8.676 12.2709 8.844C11.9269 9.004 11.5509 9.084 11.1429 9.084C10.6229 9.084 10.1629 8.976 9.76294 8.76C9.36294 8.536 9.04694 8.212 8.81494 7.788C8.59094 7.356 8.47894 6.844 8.47894 6.252V2.352H10.1589V6.012C10.1589 6.54 10.2909 6.948 10.5549 7.236C10.8189 7.516 11.1789 7.656 11.6349 7.656C12.0989 7.656 12.4629 7.516 12.7269 7.236C12.9909 6.948 13.1229 6.54 13.1229 6.012V2.352H14.8149ZM19.0165 9.108C18.4725 9.108 17.9845 9.012 17.5525 8.82C17.1205 8.62 16.7765 8.352 16.5205 8.016C16.2725 7.68 16.1365 7.308 16.1125 6.9H17.8045C17.8365 7.156 17.9605 7.368 18.1765 7.536C18.4005 7.704 18.6765 7.788 19.0045 7.788C19.3245 7.788 19.5725 7.724 19.7485 7.596C19.9325 7.468 20.0245 7.304 20.0245 7.104C20.0245 6.888 19.9125 6.728 19.6885 6.624C19.4725 6.512 19.1245 6.392 18.6445 6.264C18.1485 6.144 17.7405 6.02 17.4205 5.892C17.1085 5.764 16.8365 5.568 16.6045 5.304C16.3805 5.04 16.2685 4.684 16.2685 4.236C16.2685 3.868 16.3725 3.532 16.5805 3.228C16.7965 2.924 17.1005 2.684 17.4925 2.508C17.8925 2.332 18.3605 2.244 18.8965 2.244C19.6885 2.244 20.3205 2.444 20.7925 2.844C21.2645 3.236 21.5245 3.768 21.5725 4.44H19.9645C19.9405 4.176 19.8285 3.968 19.6285 3.816C19.4365 3.656 19.1765 3.576 18.8485 3.576C18.5445 3.576 18.3085 3.632 18.1405 3.744C17.9805 3.856 17.9005 4.012 17.9005 4.212C17.9005 4.436 18.0125 4.608 18.2365 4.728C18.4605 4.84 18.8085 4.956 19.2805 5.076C19.7605 5.196 20.1565 5.32 20.4685 5.448C20.7805 5.576 21.0485 5.776 21.2725 6.048C21.5045 6.312 21.6245 6.664 21.6325 7.104C21.6325 7.488 21.5245 7.832 21.3085 8.136C21.1005 8.44 20.7965 8.68 20.3965 8.856C20.0045 9.024 19.5445 9.108 19.0165 9.108ZM22.5796 5.676C22.5796 4.988 22.7196 4.388 22.9996 3.876C23.2796 3.356 23.6676 2.956 24.1636 2.676C24.6596 2.388 25.2276 2.244 25.8676 2.244C26.6916 2.244 27.3716 2.452 27.9076 2.868C28.4516 3.276 28.8156 3.852 28.9996 4.596H27.1876C27.0916 4.308 26.9276 4.084 26.6956 3.924C26.4716 3.756 26.1916 3.672 25.8556 3.672C25.3756 3.672 24.9956 3.848 24.7156 4.2C24.4356 4.544 24.2956 5.036 24.2956 5.676C24.2956 6.308 24.4356 6.8 24.7156 7.152C24.9956 7.496 25.3756 7.668 25.8556 7.668C26.5356 7.668 26.9796 7.364 27.1876 6.756H28.9996C28.8156 7.476 28.4516 8.048 27.9076 8.472C27.3636 8.896 26.6836 9.108 25.8676 9.108C25.2276 9.108 24.6596 8.968 24.1636 8.688C23.6676 8.4 23.2796 8 22.9996 7.488C22.7196 6.968 22.5796 6.364 22.5796 5.676ZM29.7983 5.652C29.7983 4.98 29.9303 4.384 30.1943 3.864C30.4663 3.344 30.8303 2.944 31.2863 2.664C31.7503 2.384 32.2663 2.244 32.8343 2.244C33.3303 2.244 33.7623 2.344 34.1303 2.544C34.5063 2.744 34.8063 2.996 35.0303 3.3V2.352H36.7223V9H35.0303V8.028C34.8143 8.34 34.5143 8.6 34.1303 8.808C33.7543 9.008 33.3183 9.108 32.8223 9.108C32.2623 9.108 31.7503 8.964 31.2863 8.676C30.8303 8.388 30.4663 7.984 30.1943 7.464C29.9303 6.936 29.7983 6.332 29.7983 5.652ZM35.0303 5.676C35.0303 5.268 34.9503 4.92 34.7903 4.632C34.6303 4.336 34.4143 4.112 34.1423 3.96C33.8703 3.8 33.5783 3.72 33.2663 3.72C32.9543 3.72 32.6663 3.796 32.4023 3.948C32.1383 4.1 31.9223 4.324 31.7543 4.62C31.5943 4.908 31.5143 5.252 31.5143 5.652C31.5143 6.052 31.5943 6.404 31.7543 6.708C31.9223 7.004 32.1383 7.232 32.4023 7.392C32.6743 7.552 32.9623 7.632 33.2663 7.632C33.5783 7.632 33.8703 7.556 34.1423 7.404C34.4143 7.244 34.6303 7.02 34.7903 6.732C34.9503 6.436 35.0303 6.084 35.0303 5.676ZM40.0432 3.384C40.2592 3.032 40.5392 2.756 40.8832 2.556C41.2352 2.356 41.6352 2.256 42.0832 2.256V4.02H41.6392C41.1112 4.02 40.7112 4.144 40.4392 4.392C40.1752 4.64 40.0432 5.072 40.0432 5.688V9H38.3632V2.352H40.0432V3.384Z" fill="white"/>
</svg>
